<?xml version="1.0" encoding="utf-8"?>
<!-- Generator: Adobe Illustrator 24.1.0, SVG Export Plug-In . SVG Version: 6.00 Build 0)  -->
<svg version="1.1" id="Layer_1" xmlns="http://www.w3.org/2000/svg" xmlns:xlink="http://www.w3.org/1999/xlink" x="0px" y="0px"
	 viewBox="0 0 240 234" style="enable-background:new 0 0 240 234;" xml:space="preserve">
<style type="text/css">
	.st0{fill:#013301;}
	.st1{fill:#33FF66;}
</style>
<g id="Layer_2_1_">
	<g id="Surfaces">
		<g id="_3D_Surface">
			<g id="Outline_no_shadow">
				<path class="st0" d="M42.5,0h155C221,0,240,19,240,42.5v149c0,23.5-19,42.5-42.5,42.5h-155C19,234,0,215,0,191.5v-149
					C0,19,19,0,42.5,0z"/>
			</g>
		</g>
	</g>
	<g id="Outlined_Mnemonics_Logos">
		<g id="Dn">
			<path class="st1" d="M35,163.8V61.4c-0.1-0.6,0.4-1.2,1.1-1.3c0,0,0.1,0,0.1,0c1.6-0.1,4-0.2,7.1-0.2c3.1-0.1,6.8-0.1,10.9-0.2
				c4.2-0.1,8.6-0.1,13.4-0.1c12.9,0,23.6,2.2,32,6.6c8,4,14.7,10.3,19.1,18.1c4.2,7.7,6.4,16.5,6.4,26.5c0.1,7-1,13.9-3.3,20.5
				c-2,5.6-5.1,10.9-9,15.4c-3.7,4.2-8.1,7.8-13,10.7c-4.8,2.8-10,5-15.5,6.3c-5.3,1.3-10.8,2-16.3,2H56c-4.2,0-8.2,0-11.8-0.1
				c-3.6-0.1-6.4-0.1-8.2-0.2C35.3,165.4,35,164.8,35,163.8z M57.2,79.4v66.7c1.2,0,2.3,0,3.2,0.1c1,0.1,2,0.1,3,0.2
				c1,0.1,2.2,0.1,3.5,0.1c4.9,0.1,9.7-0.7,14.3-2.3c4.1-1.4,7.9-3.7,11-6.8c3.1-3.1,5.6-6.9,7.1-11.1c1.7-4.8,2.6-9.9,2.5-15
				c0.1-4.8-0.7-9.6-2.4-14.1c-1.5-3.9-3.9-7.4-7-10.1c-3.2-2.8-6.9-4.9-10.9-6c-4.5-1.3-9.2-2-13.9-1.9c-2.1,0-3.9,0-5.4,0.1
				C60.7,79.2,59,79.3,57.2,79.4L57.2,79.4z"/>
			<path class="st1" d="M134.8,163.9V104c0-1.8,0-3.9-0.1-6.1c-0.1-2.3-0.1-4.4-0.2-6.4c-0.1-2-0.2-3.6-0.3-4.8
				c-0.1-0.3-0.1-0.7,0.2-1c0.3-0.2,0.6-0.3,1-0.3H152c0.6,0,1.1,0.1,1.6,0.3c0.4,0.2,0.7,0.6,0.8,1.1c0.2,0.6,0.5,1.4,0.7,2.2
				c0.3,1,0.5,2,0.6,3c3.1-2.7,6.7-4.8,10.6-6.2c3.9-1.3,8-2,12.1-2c3.2,0,6.4,0.5,9.4,1.5c7.1,2.3,12.7,7.8,15.2,14.8
				c1.6,4.1,2.4,9.5,2.4,16v47.8c0,1-0.4,1.4-1.3,1.4h-19.5c-0.8,0.1-1.5-0.4-1.6-1.2c0-0.1,0-0.3,0-0.4V118
				c0.1-2.8-0.4-5.6-1.4-8.2c-0.9-2-2.3-3.8-4.1-5c-2.1-1.3-4.4-1.9-6.8-1.8c-2.6,0-5.2,0.4-7.6,1.4c-2.2,0.9-4.2,2.2-6,3.8v55.7
				c0,1-0.4,1.4-1.3,1.4h-19.6c-0.7,0.1-1.3-0.4-1.4-1.1C134.8,164.2,134.8,164.1,134.8,163.9z"/>
		</g>
	</g>
</g>
</svg>
